<?xml version="1.0" encoding="UTF-8"?>
<svg width="540px" height="761px" viewBox="0 0 540 761" version="1.1" xmlns="http://www.w3.org/2000/svg" xmlns:xlink="http://www.w3.org/1999/xlink">
    <!-- Generator: Sketch 63.1 (92452) - https://sketch.com -->
    <title>Combined Shape</title>
    <desc>Created with Sketch.</desc>
    <g id="tinu.be" stroke="none" stroke-width="1" fill="none" fill-rule="evenodd">
        <g id="v2" transform="translate(-541.000000, -33.000000)" stroke="#050061" stroke-width="4">
            <g id="Hero">
                <g id="Group">
                    <g id="Group-5" style="mix-blend-mode: overlay;" transform="translate(544.000000, 35.000000)">
                        <path d="M308.776363,224.401578 C320.913917,223.649071 333.102341,223.954142 345.1992,225.316789 C346.521817,225.459155 347.844434,225.621859 349.156877,225.794732 C355.057783,226.567577 360.928168,227.604816 366.76803,228.886112 C370.440836,229.699632 374.103468,230.604674 377.755925,231.621575 C379.9942,232.241885 382.232475,232.913039 384.460576,233.614701 C386.658155,234.316363 388.855734,235.038363 391.032965,235.801038 C393.291588,236.594221 395.540037,237.438249 397.788486,238.322953 C403.96409,240.753346 410.058302,243.478641 416.030426,246.519175 C432.308789,254.817087 447.732538,265.382688 461.803147,278.287162 C463.11559,279.487105 464.407686,280.707386 465.699781,281.948005 C466.981702,283.178456 468.243275,284.439413 469.494674,285.710539 C481.428749,297.801492 491.56203,311.041543 499.914864,325.074777 C504.38124,332.569337 508.338917,340.297785 511.777721,348.188936 C512.734075,350.395611 513.670081,352.622625 514.545043,354.839469 C515.389483,356.995299 516.193227,359.161298 516.956276,361.327297 C517.749846,363.533972 518.50272,365.740647 519.214898,367.957492 C520.354384,371.557321 521.392129,375.177489 522.348483,378.838332 C523.844058,384.604161 525.075109,390.441173 526.072159,396.308691 C526.295986,397.610325 526.499466,398.922127 526.692771,400.244098 C528.04591,409.223334 528.808959,418.273753 528.971742,427.324172 C528.981916,427.405524 528.971742,427.486876 528.971742,427.568228 C529.022612,430.578255 529,433.588282 528.931046,436.58814 C528.910698,437.19828 528.89035,437.798252 528.870002,438.398224 C528.625827,445.425009 528.025562,452.421288 527.069209,459.397229 C526.814859,461.288665 526.529988,463.19027 526.214594,465.081706 C524.759716,473.918575 522.745268,482.694431 520.130556,491.317751 C519.581162,493.138004 519.001245,494.958257 518.40098,496.768341 C516.976624,501.029156 515.420005,505.259464 513.710777,509.428758 C513.446254,510.099913 513.171556,510.74056 512.896859,511.401546 C511.431806,514.909854 509.85484,518.367318 508.186308,521.804443 C507.402911,523.411147 506.609341,525.007681 505.785249,526.583878 C503.526626,530.956552 501.084872,535.268212 498.480334,539.508689 C496.47606,542.762773 494.380221,545.97618 492.172468,549.15908 C491.592551,549.98277 491.022809,550.80646 490.442892,551.609811 C487.665396,555.494373 484.735291,559.317921 481.652576,563.039778 C478.295164,567.097213 474.75462,571.063127 471.030944,574.917182 L471.030944,574.917182 L356.421096,693.721725 C277.074251,775.958509 145.585775,778.358395 63.2986511,699.050287 C2.27513833,640.232733 -14.7967947,552.74874 12.8255523,477.914996 C20.3034252,487.626401 28.5748683,496.920876 37.6602296,505.676393 C59.1273206,526.380498 83.3719072,542.457702 109.152764,553.979191 C110.170162,578.333969 120.140659,602.332833 139.033734,620.54553 C178.010239,658.120022 240.295325,656.981092 277.877995,618.023615 L277.877995,618.023615 L392.498018,499.229241 C430.070514,460.271764 428.941202,398.006916 389.964697,360.442593 C375.446433,346.450036 357.682669,337.826715 339.176205,334.531956 C338.128286,334.348914 337.080366,334.196379 336.032447,334.043843 C334.974353,333.901477 333.926433,333.748942 332.858166,333.626914 C330.396063,333.352351 327.933961,333.169309 325.461685,333.077787 C325.136117,333.067618 324.820724,333.037111 324.505331,333.037111 C309.488541,332.630351 294.410708,335.660716 280.543577,342.057023 C279.485484,342.545136 278.42739,343.053586 277.37947,343.592544 C274.10345,345.250092 270.908821,347.100852 267.805758,349.134654 C261.87433,353.049723 256.258295,357.646115 251.120436,362.964508 C230.233262,384.61433 195.631567,385.244809 173.981344,364.378 C152.320948,343.501023 151.690161,308.91622 172.577336,287.276567 C176.301011,283.412343 180.126426,279.74133 184.073929,276.233022 C187.685691,273.009446 191.389019,269.958743 195.173738,267.040237 C195.967308,266.419927 196.771052,265.809787 197.564623,265.219984 C200.667686,262.90145 203.80127,260.694775 206.995899,258.559283 C211.126534,255.803481 215.348734,253.220552 219.631978,250.800328 C221.198771,249.915624 222.755389,249.061427 224.332356,248.227568 C227.699942,246.427654 231.108224,244.729429 234.567376,243.143063 C235.208337,242.848162 235.849297,242.543092 236.500432,242.25836 C240.610718,240.397431 244.782049,238.689037 248.994075,237.112841 C250.784695,236.451855 252.575315,235.801038 254.376109,235.180729 C262.912075,232.262223 271.610826,229.923351 280.390968,228.153943 C282.273153,227.76752 284.155339,227.421774 286.047699,227.096366 C292.976177,225.886254 299.965699,225.032057 306.975569,224.533775 C307.575834,224.48293 308.176098,224.442254 308.776363,224.401578 Z M177.576562,63.2828789 C256.92341,-18.9652227 388.422067,-21.3549734 470.709195,57.9542432 C531.732711,116.772618 548.794471,204.257833 521.172122,279.092623 C513.704423,269.381083 505.432979,260.096647 496.347618,251.330838 C474.870352,230.636614 450.625764,214.549015 424.844905,203.017197 C423.837682,178.682416 413.85701,154.662879 394.963934,136.449928 C355.997601,98.8952492 293.702338,100.024025 256.119666,138.982046 L256.119666,138.982046 L141.509812,257.78825 C117.926533,282.224722 109.594045,315.843938 116.288523,346.778499 C120.256374,365.154157 129.514693,382.563745 144.043133,396.566667 C158.561398,410.55942 176.314988,419.172692 194.821453,422.477666 C201.149667,423.606442 207.579621,424.1149 213.989226,424.003039 C222.993196,423.840333 231.986992,422.416652 240.685743,419.803179 C241.102876,419.67098 241.530183,419.569289 241.95749,419.426921 C257.035324,414.667758 271.156805,406.196854 282.8874,394.034548 C303.764402,372.394593 338.366099,371.764105 360.026496,392.641374 C381.67672,413.508474 382.307506,448.09376 361.420331,469.743885 C357.706829,473.597994 353.87124,477.279227 349.933911,480.777415 C346.179713,484.123066 342.33395,487.285672 338.386446,490.30591 C337.969313,490.631323 337.55218,490.956736 337.124873,491.282149 C333.584329,493.946467 329.992915,496.488755 326.330283,498.898844 C322.647304,501.329271 318.893106,503.637669 315.077865,505.813867 C313.043069,506.973151 310.987926,508.091757 308.932782,509.179857 C305.799197,510.827259 302.63509,512.393309 299.440461,513.878005 C298.789327,514.162741 298.148366,514.457646 297.507406,514.752552 C294.902868,515.922004 292.277981,517.040611 289.632747,518.108372 C286.316031,519.430362 282.978966,520.681167 279.61138,521.830282 C277.698672,522.481107 275.765616,523.101426 273.822387,523.701406 C271.472198,524.433585 269.101661,525.114918 266.731125,525.765744 C262.386836,526.935196 258.001852,527.96228 253.606694,528.857166 C251.734682,529.233424 249.852496,529.589345 247.949962,529.924927 C246.3323,530.199494 244.704464,530.463892 243.066453,530.707951 C241.662445,530.911334 240.258436,531.114717 238.844253,531.287593 C235.517362,531.724867 232.180298,532.080787 228.833059,532.345185 C226.940699,532.497722 225.058514,532.619752 223.15598,532.721443 C221.619709,532.802797 220.083439,532.863812 218.536994,532.914657 C216.878636,532.965503 215.230452,532.985841 213.572093,533 C211.791647,533.00618 210.011201,533 208.230755,532.975672 C206.04335,532.934996 203.855945,532.863812 201.66854,532.751951 C199.155567,532.619752 196.652769,532.446876 194.139797,532.223155 C190.436469,531.907911 186.733141,531.490976 183.050161,530.96218 C178.146304,530.280847 173.283143,529.416469 168.44033,528.379216 C158.205309,526.192848 148.112723,523.233625 138.243965,519.471038 C137.562309,519.21681 136.890826,518.952412 136.219344,518.688014 C130.033566,516.257586 123.949527,513.522084 117.967229,510.491677 C101.699039,502.193649 86.2651156,491.617731 72.194505,478.733415 C70.8820619,477.523286 69.5899668,476.302988 68.2978717,475.072521 C67.0159506,473.831884 65.7543774,472.581078 64.5029782,471.320104 C52.5689028,459.218813 42.4356214,445.978577 34.0827861,431.945147 C29.6265841,424.450482 25.6587329,416.721926 22.2199286,408.830664 C21.9350572,408.1595 21.6400119,407.498506 21.3551405,406.817172 C17.2550277,397.105632 13.9179631,387.129694 11.3541209,376.991049 C10.1434176,372.19121 9.0954979,367.350693 8.24088381,362.5 C7.58974927,358.828944 7.03018052,355.147711 6.57235154,351.456309 C6.26713222,348.954697 5.99243483,346.463255 5.77878131,343.961644 C5.58547574,341.775276 5.44304006,339.588908 5.32095233,337.402541 C5.17851665,334.829745 5.0666029,332.25695 5.02590699,329.673985 L5.02590699,329.673985 L5.02590699,329.562124 C4.98521108,327.202881 5,324.853807 5.03608097,322.484395 C5.0666029,320.592932 5.11747279,318.691301 5.19886461,316.799839 C5.34130029,313.454188 5.57530177,310.098367 5.88052108,306.752716 C6.01278279,305.349374 6.15521847,303.935861 6.31800211,302.522349 C6.5011337,300.885116 6.70461324,299.258051 6.92844074,297.620818 C7.18279018,295.709017 7.46766154,293.827724 7.78305484,291.926093 C8.50540722,287.502512 9.39054325,283.0891 10.407941,278.716364 C10.9573357,276.316444 11.5576004,273.926694 12.208735,271.547112 C12.7276078,269.584466 13.2871765,267.631989 13.8670932,265.689681 C14.894665,262.293184 16.0239764,258.906856 17.2245058,255.551036 C18.1910336,252.886718 19.2186053,250.2224 20.2970469,247.568252 C20.5513963,246.917426 20.8260937,246.256431 21.1007911,245.615775 C22.464104,242.361646 23.9088088,239.148194 25.4450794,235.95508 C26.4523031,233.850066 27.5002228,231.75522 28.5888384,229.690882 C30.6338078,225.806266 32.790691,221.972496 35.1001838,218.189572 C37.3791547,214.447324 39.7802134,210.766091 42.3237077,207.135703 C42.618753,206.708599 42.9341463,206.281495 43.2291917,205.844221 C46.1186012,201.796898 49.1402725,197.830929 52.3450753,193.966651 C55.7024878,189.90916 59.2532059,185.943191 62.9667076,182.089082 L62.9667076,182.089082 Z" id="Combined-Shape"></path>
                    </g>
                </g>
            </g>
        </g>
    </g>
</svg>