<?xml version="1.0" encoding="UTF-8"?>
<svg width="151px" height="40px" viewBox="0 0 151 40" version="1.1" xmlns="http://www.w3.org/2000/svg" xmlns:xlink="http://www.w3.org/1999/xlink">
    <!-- Generator: Sketch 62 (91390) - https://sketch.com -->
    <title>logo</title>
    <desc>Created with Sketch.</desc>
    <defs>
        <linearGradient x1="81.8241873%" y1="15.6994334%" x2="17.7728988%" y2="86.9935327%" id="linearGradient-1">
            <stop stop-color="#D8E8FF" offset="0%"></stop>
            <stop stop-color="#B0CCFF" offset="100%"></stop>
        </linearGradient>
        <linearGradient x1="87.047643%" y1="35.5763468%" x2="50%" y2="100%" id="linearGradient-2">
            <stop stop-color="#D8E8FF" offset="0%"></stop>
            <stop stop-color="#B0CCFF" offset="100%"></stop>
        </linearGradient>
    </defs>
    <g id="tinu.be" stroke="none" stroke-width="1" fill="none" fill-rule="evenodd">
        <g id="Desktop-HD" transform="translate(-645.000000, -95.000000)">
            <g id="@logo/Light" transform="translate(645.000000, 95.000000)">
                <g id="Group-11">
                    <path d="M16.0862069,30.1324396 L16.0862069,36.7718452 L12.1104668,36.7718452 C9.27693486,36.7718452 7.06769514,36.0778649 5.48393619,34.6884158 C3.89928583,33.2998598 3.10740636,31.0330361 3.10740636,27.888838 L3.10740636,17.7238577 L-8.91421543e-05,17.7238577 L-8.91421543e-05,11.2217 L3.10740636,11.2217 L3.10740636,4.99463361 L10.9222019,4.99463361 L10.9222019,11.2217 L16.0404473,11.2217 L16.0404473,17.7238577 L10.9222019,17.7238577 L10.9222019,27.9802373 C10.9222019,28.7435859 11.1049433,29.293173 11.4704261,29.628701 C11.8362061,29.9651222 12.4453442,30.1324396 13.2984346,30.1324396 L16.0862069,30.1324396 Z" id="Fill-1" fill="#FFFFFF"></path>
                    <path d="M20.4855049,36.746888 L28.3724432,36.746888 L28.3724432,11.1479759 L20.4855049,11.1479759 L20.4855049,36.746888 Z M21.0619031,7.2714047 C20.1856099,6.46125025 19.7474634,5.4592956 19.7474634,4.26643563 C19.7474634,3.04344842 20.1856099,2.02628101 21.0619031,1.21552997 C21.9384961,0.405673807 23.0682006,0 24.4522159,0 C25.8047423,0 26.9197519,0.405673807 27.796045,1.21552997 C28.6723382,2.02628101 29.1104848,3.04344842 29.1104848,4.26643563 C29.1104848,5.4592956 28.6723382,6.46125025 27.796045,7.2714047 C26.9197519,8.08215574 25.8047423,8.48693467 24.4522159,8.48693467 C23.0682006,8.48693467 21.9384961,8.08215574 21.0619031,7.2714047 L21.0619031,7.2714047 Z" id="Fill-4" fill="#FFFFFF"></path>
                    <path d="M56.8913407,13.7993387 C58.6856893,15.740949 59.5828636,18.407272 59.5828636,21.8000965 L59.5828636,36.746888 L51.7610833,36.746888 L51.7610833,22.8545223 C51.7610833,21.1430553 51.3162356,19.8134712 50.4268394,18.8657698 C49.5368449,17.9186647 48.3405128,17.4443669 46.8381423,17.4443669 C45.3348742,17.4443669 44.1385421,17.9186647 43.2491459,18.8657698 C42.3594506,19.8134712 41.9149021,21.1430553 41.9149021,22.8545223 L41.9149021,36.746888 L34.0473506,36.746888 L34.0473506,11.1631251 L41.9149021,11.1631251 L41.9149021,14.5559496 C42.7124568,13.425505 43.7855359,12.531464 45.1359343,11.8738266 C46.485136,11.2167855 48.0036611,10.8879668 49.690612,10.8879668 C52.6965498,10.8879668 55.096693,11.8586229 56.8913407,13.7993387" id="Fill-6" fill="#FFFFFF"></path>
                    <path d="M145.382848,21.8082489 C145.351896,19.8871226 144.665302,18.3473067 143.323067,17.1879089 C141.979641,16.0294034 140.317174,15.4497045 138.333583,15.4497045 C136.533023,15.4497045 134.992578,16.0213727 133.710758,17.1653039 C132.429236,18.3086403 131.665858,19.8567844 131.422113,21.8082489 L145.382848,21.8082489 Z M150.646731,26.0166428 L131.376281,26.0166428 C131.528658,28.0296763 132.275965,29.6465276 133.619391,30.8657096 C134.961626,32.0857839 136.60951,32.6955237 138.562745,32.6955237 C141.369832,32.6955237 143.353126,31.521849 144.512924,29.1733101 L150.142872,29.1733101 C149.38009,31.4912133 147.998867,33.3897347 146.000692,34.8682792 C144.001625,36.3480134 141.521912,37.0871369 138.562745,37.0871369 C136.151483,37.0871369 133.992598,36.545807 132.08579,35.4631472 C130.178388,34.3810822 128.683179,32.8555432 127.600165,30.888612 C126.516556,28.9216809 125.975197,26.6421466 125.975197,24.0497117 C125.975197,21.4578717 126.501675,19.1780399 127.554333,17.2108113 C128.607288,15.2438802 130.086723,13.7272641 131.994423,12.6591786 C133.900933,11.5919853 136.09077,11.0580913 138.562745,11.0580913 C140.942757,11.0580913 143.063251,11.5771136 144.925119,12.6133738 C146.786094,13.6505262 148.235767,15.1067631 149.273247,16.9820846 C150.310428,18.8577035 150.829763,21.0155873 150.829763,23.4551411 C150.829763,24.4006838 150.768157,25.2549143 150.646731,26.0166428 L150.646731,26.0166428 Z" id="Fill-7" fill="url(#linearGradient-1)"></path>
                    <path d="M87.7221263,36.8119786 C87.5647522,36.1841525 87.4799434,35.5274095 87.4799434,34.850991 C87.4799434,32.4401509 88.5433383,30.2782351 90.2254791,28.8031718 L90.2254791,11.2282158 L82.3720047,11.2282158 L82.3720047,25.1202833 C82.3720047,26.8326446 81.9276543,28.1622288 81.0398495,29.1093339 C80.1514474,30.0570353 78.9426233,30.5307369 77.4115855,30.5307369 C75.9113058,30.5307369 74.7168156,30.0570353 73.8293094,29.1093339 C72.9409073,28.1622288 72.4977514,26.8326446 72.4977514,25.1202833 L72.4977514,11.2282158 L64.6899662,11.2282158 L64.6899662,26.1750073 C64.6899662,28.4066815 65.1032598,30.3470992 65.929847,31.9977511 C66.7564342,33.648403 67.9198677,34.9091231 69.420446,35.7805075 C70.9198298,36.6515938 72.6503475,37.0871369 74.6102073,37.0871369 C76.2636804,37.0871369 77.7714257,36.7434126 79.1337417,36.0553677 C80.4963564,35.3676209 81.5752797,34.4586743 82.3720047,33.3276334 L82.3720047,36.8119786 L87.7221263,36.8119786 Z" id="Fill-8" fill="#FFFFFF"></path>
                    <path d="M100.439684,34.7053942 C100.439684,37.3360972 98.305545,39.4688797 95.6731684,39.4688797 C93.0405655,39.4688797 90.9064262,37.3360972 90.9064262,34.7053942 C90.9064262,32.0746912 93.0405655,29.9419087 95.6731684,29.9419087 C98.305545,29.9419087 100.439684,32.0746912 100.439684,34.7053942" id="Fill-9" fill="#FFFFFF"></path>
                    <path d="M116.011258,28.5074106 C115.293598,29.8230084 114.346941,30.8244737 113.171883,31.5127014 C111.99623,32.2009291 110.736601,32.5448938 109.393295,32.5448938 C108.080363,32.5448938 106.835922,32.2086854 105.660864,31.5353738 C104.485211,30.8629571 103.538256,29.8767063 102.821191,28.5760245 C102.10353,27.2765361 101.744997,25.7544998 101.744997,24.0111089 C101.744997,22.2674198 102.10353,20.7534381 102.821191,19.4688658 C103.538256,18.1842934 104.485211,17.2055005 105.660864,16.5321889 C106.835922,15.8597723 108.080363,15.5229673 109.393295,15.5229673 C110.736601,15.5229673 111.99623,15.8520159 113.171883,16.5095165 C114.346941,17.1676137 115.293598,18.1308938 116.011258,19.3999535 C116.728324,20.6696098 117.087452,22.1758351 117.087452,23.9192259 C117.087452,25.6626168 116.728324,27.1927077 116.011258,28.5074106 M120.843408,17.1518027 C119.804736,15.1787043 118.385197,13.6575629 116.583898,12.5865888 C114.782004,11.5162112 112.766598,10.9807241 110.538277,10.9807241 C108.644963,10.9807241 106.927341,11.3706303 105.386009,12.150741 C103.84408,12.9308518 102.630013,13.9329137 101.744997,15.1560318 L101.744997,2.7219917 L96.524239,2.7219917 L96.524239,26.7118135 C100.527952,27.1724219 103.638014,30.5774635 103.638014,34.7119011 C103.638014,34.7694772 103.634738,34.8261583 103.633845,34.883436 C104.150501,35.2715523 104.717185,35.6250633 105.34015,35.9400908 C106.851704,36.7043904 108.584215,37.0871369 110.538277,37.0871369 C112.73682,37.0871369 114.743888,36.529574 116.560969,35.41236 C118.377157,34.2963393 119.804736,32.7364162 120.843408,30.7325907 C121.880889,28.7296601 122.400225,26.4585385 122.400225,23.9192259 C122.400225,21.3808083 121.880889,19.1246028 120.843408,17.1518027" id="Fill-10" fill="url(#linearGradient-2)"></path>
                </g>
            </g>
        </g>
    </g>
</svg>