<svg xmlns="http://www.w3.org/2000/svg" xmlns:xlink="http://www.w3.org/1999/xlink" viewBox="0 0 565 133">
  <defs>
    <path id="a" d="M0 0h564.64v132.73H0z"/>
  </defs>
  <g fill="none" fill-rule="evenodd">
    <mask id="b" fill="#fff">
      <use xlink:href="#a"/>
    </mask>
    <path fill="#FFF" d="M217.5 118.12h20.9V50h-20.9v68.13zm1.53-78.45a10.48 10.48 0 01-3.48-8c0-3.25 1.16-5.96 3.48-8.11 2.33-2.16 5.32-3.24 8.98-3.24 3.59 0 6.54 1.08 8.86 3.24a10.62 10.62 0 013.48 8.12c0 3.17-1.16 5.84-3.48 8-2.32 2.15-5.27 3.23-8.86 3.23-3.66 0-6.65-1.08-8.98-3.24zM314.57 56.7c4.78 5.2 7.17 12.33 7.17 21.41v40.01H300.9V80.93c0-4.58-1.18-8.14-3.55-10.67-2.38-2.54-5.56-3.8-9.57-3.8-4 0-7.19 1.26-9.56 3.8-2.37 2.53-3.55 6.1-3.55 10.67v37.2H253.7v-68.5h20.97v9.09a22.13 22.13 0 018.58-7.18 27.26 27.26 0 0112.13-2.64c8.01 0 14.4 2.6 19.19 7.8" mask="url(#b)"/>
    <path fill="#3C5BDD" d="M550.14 78.12c-.08-5.1-1.9-9.2-5.48-12.28-3.57-3.08-8-4.63-13.27-4.63-4.8 0-8.9 1.53-12.3 4.57-3.41 3.04-5.44 7.15-6.1 12.34h37.15zm14 11.2h-51.26c.4 5.35 2.39 9.65 5.97 12.9 3.57 3.24 7.95 4.86 13.15 4.86 7.47 0 12.74-3.12 15.83-9.37h14.98a30.19 30.19 0 01-11.02 15.15c-5.32 3.93-11.92 5.9-19.8 5.9-6.4 0-12.15-1.44-17.23-4.32a30.73 30.73 0 01-11.93-12.17c-2.88-5.23-4.32-11.29-4.32-18.18 0-6.9 1.4-12.96 4.2-18.2a29.53 29.53 0 0111.81-12.1c5.07-2.83 10.9-4.25 17.48-4.25 6.33 0 11.97 1.38 16.93 4.13a29.26 29.26 0 0111.56 11.62c2.76 4.99 4.15 10.73 4.15 17.21 0 2.52-.17 4.8-.5 6.82z" mask="url(#b)"/>
    <path fill="#FFF" d="M396.46 118.02a21.66 21.66 0 016.67-21.44V49.54h-20.92v37.18c0 4.59-1.19 8.15-3.55 10.68-2.37 2.54-5.6 3.8-9.67 3.8-4 0-7.18-1.26-9.55-3.8-2.36-2.53-3.54-6.1-3.54-10.68V49.54h-20.8v40c0 5.98 1.1 11.17 3.3 15.6 2.2 4.41 5.3 7.79 9.3 10.12 4 2.33 8.6 3.5 13.82 3.5 4.41 0 8.43-.92 12.06-2.76a23 23 0 008.63-7.3v9.32h14.25zM431.74 112.4a13.98 13.98 0 11-27.96-.01 13.98 13.98 0 0127.96.02" mask="url(#b)"/>
    <path fill="#3C5BDD" d="M471.86 95.93a20.3 20.3 0 01-7.6 8 19.9 19.9 0 01-27.72-7.82c-1.93-3.46-2.9-7.5-2.9-12.15 0-4.64.97-8.67 2.89-12.09a20.04 20.04 0 0117.6-10.5c3.6 0 6.97.88 10.12 2.63a19.73 19.73 0 017.6 7.69c1.93 3.38 2.89 7.39 2.89 12.03s-.96 8.7-2.88 12.2m12.94-30.21a30.14 30.14 0 00-11.4-12.15 31.27 31.27 0 00-16.2-4.27c-5.07 0-9.67 1.03-13.8 3.1a26.5 26.5 0 00-9.75 8V27.32h-13.99v63.84a21.47 21.47 0 0119.06 21.29l-.02.45a30.61 30.61 0 004.58 2.82c4.04 2.03 8.68 3.05 13.92 3.05 5.89 0 11.26-1.49 16.13-4.46a31.1 31.1 0 0011.47-12.45c2.78-5.33 4.17-11.38 4.17-18.13 0-6.76-1.4-12.76-4.17-18.01" mask="url(#b)"/>
    <path fill="#FFF" d="M205.38 100.48v17.64h-10.53c-7.5 0-13.35-1.84-17.55-5.54-4.2-3.69-6.3-9.71-6.3-18.07V67.5h-8.22V50.21H171V33.66h20.7V50.2h13.55v17.28H191.7v27.26c0 2.03.49 3.5 1.46 4.39.97.9 2.58 1.34 4.84 1.34h7.38zM132.66 60.89A66.42 66.42 0 0060.96.23 66.39 66.39 0 00.23 71.84a66.42 66.42 0 0092.38 55.52l17.91 1.7a3.4 3.4 0 003.96-2.72l2.68-17.1a66.1 66.1 0 0015.5-48.35" mask="url(#b)"/>
    <path fill="#3C5BDD" d="M57.91 34.91l-11.43 11.9a21.1 21.1 0 00-4.18 6.35 16.06 16.06 0 00-.39 1 21.55 21.55 0 00-1.13 5.12 20.9 20.9 0 00-.08 2.28v.01a19.62 19.62 0 00.32 3.29 20.37 20.37 0 001.3 4.44l.1.2a20.52 20.52 0 004.98 7 20.56 20.56 0 0013.57 5.42h.53a22.18 22.18 0 002.52-.17l.43-.06a13.11 13.11 0 001.05-.18 21.81 21.81 0 004.38-1.41l.19-.1a21.02 21.02 0 003.76-2.25l.12-.1a20.82 20.82 0 002.3-2.06 5.44 5.44 0 10-7.83-7.58 9.75 9.75 0 01-4.09 2.55l-.12.03a9.84 9.84 0 01-9.64-2.32 9.84 9.84 0 01-.25-13.89l11.43-11.9a9.79 9.79 0 0116.83 6.42 24.94 24.94 0 019.61 7.61 20.8 20.8 0 00-5.04-22.13 20.66 20.66 0 00-29.24.53" mask="url(#b)"/>
    <path fill="#3C5BDD" d="M81.56 53.06a20.47 20.47 0 00-10.7-2.21h-.18a20.64 20.64 0 00-13.4 6.29 5.44 5.44 0 107.84 7.58 9.8 9.8 0 017.31-3h.1a9.46 9.46 0 011.05.1l.32.05a9.85 9.85 0 015.32 16.48l-11.44 11.9a9.79 9.79 0 01-16.83-6.42 24.92 24.92 0 01-9.61-7.61 20.8 20.8 0 005.03 22.13 20.67 20.67 0 0029.25-.53l11.43-11.9A20.42 20.42 0 0089 83.6l.17-.24a20.13 20.13 0 002.07-3.78l.08-.2a20 20 0 001.33-5c.1-.7.16-1.4.18-2.1v-.19c.01-.3.02-.6.01-.9v-.02a20.92 20.92 0 00-5.93-14.18 21.98 21.98 0 00-.77-.74 20.56 20.56 0 00-4.57-3.18" mask="url(#b)"/>
  </g>
</svg>