<?xml version="1.0" encoding="UTF-8"?>
<svg width="409px" height="97px" viewBox="0 0 409 97" version="1.1" xmlns="http://www.w3.org/2000/svg" xmlns:xlink="http://www.w3.org/1999/xlink">
    <!-- Generator: Sketch 62 (91390) - https://sketch.com -->
    <title>logo-dark</title>
    <desc>Created with Sketch.</desc>
    <defs>
        <polygon id="path-1" points="0 0 408.459977 0 408.459977 96.0805687 0 96.0805687"></polygon>
    </defs>
    <g id="tinu.be" stroke="none" stroke-width="1" fill="none" fill-rule="evenodd">
        <g id="Desktop-HD" transform="translate(-75.000000, -64.000000)">
            <g id="@logo/Dark" transform="translate(75.000000, 64.000000)">
                <g id="logo-dark" transform="translate(0.000000, -0.000000)">
                    <mask id="mask-2" fill="white">
                        <use xlink:href="#path-1"></use>
                    </mask>
                    <g id="Clip-2"></g>
                    <path d="M157.34672,85.507109 L172.457844,85.507109 L172.457844,36.1883772 L157.34672,36.1883772 L157.34672,85.507109 Z M158.450755,28.7195775 C156.772066,27.1589 155.932356,25.2284144 155.932356,22.9303222 C155.932356,20.5742641 156.772066,18.6144288 158.450755,17.0522837 C160.130175,15.4923399 162.295165,14.7109005 164.946458,14.7109005 C167.537875,14.7109005 169.674389,15.4923399 171.353078,17.0522837 C173.032497,18.6144288 173.871477,20.5742641 173.871477,22.9303222 C173.871477,25.2284144 173.032497,27.1589 171.353078,28.7195775 C169.674389,30.2817226 167.537875,31.0616945 164.946458,31.0616945 C162.295165,31.0616945 160.130175,30.2817226 158.450755,28.7195775 L158.450755,28.7195775 Z" id="Fill-1" fill="#262E49" mask="url(#mask-2)"></path>
                    <path d="M227.561142,41.0401459 C231.019441,44.802491 232.748591,49.9692579 232.748591,56.5433987 L232.748591,85.507109 L217.673258,85.507109 L217.673258,58.5869322 C217.673258,55.2703416 216.815294,52.6939692 215.10157,50.8578149 C213.385643,49.0223986 211.079865,48.1028454 208.184238,48.1028454 C205.287141,48.1028454 202.981364,49.0223986 201.266905,50.8578149 C199.551713,52.6939692 198.695218,55.2703416 198.695218,58.5869322 L198.695218,85.507109 L183.531003,85.507109 L183.531003,35.9316813 L198.695218,35.9316813 L198.695218,42.5058221 C200.231913,40.3154258 202.300429,38.5833301 204.902967,37.308797 C207.504037,36.0357398 210.430516,35.3981043 213.682404,35.3981043 C219.475863,35.3981043 224.102109,37.2792768 227.561142,41.0401459" id="Fill-3" fill="#262E49" mask="url(#mask-2)"></path>
                    <path d="M397.976579,56.5527861 C397.916431,52.8545855 396.595371,49.8903062 394.01193,47.6584817 C391.425556,45.4281236 388.225963,44.3122114 384.40875,44.3122114 C380.942892,44.3122114 377.978023,45.4127267 375.510479,47.6152236 C373.044401,49.8162542 371.57517,52.7959305 371.10572,56.5527861 L397.976579,56.5527861 Z M408.10789,64.6552473 L371.017699,64.6552473 C371.310371,68.5301462 372.748794,71.6425295 375.335169,73.9894645 C377.917875,76.338599 381.090328,77.5124331 384.849593,77.5124331 C390.252665,77.5124331 394.069878,75.2527475 396.301964,70.73191 L407.13745,70.73191 C405.669686,75.1940925 403.011427,78.849035 399.165607,81.695271 C395.317587,84.5437066 390.544604,85.9668246 384.849593,85.9668246 C380.208643,85.9668246 376.05328,84.9242312 372.38277,82.8405108 C368.712261,80.7575235 365.834681,77.8203721 363.750031,74.034189 C361.663914,70.2472726 360.622322,65.8584089 360.622322,60.868331 C360.622322,55.8782531 361.635307,51.4893893 363.662009,47.702473 C365.687978,43.9162899 368.535483,40.9960018 372.20746,38.9401425 C375.876503,36.8857496 380.091281,35.8578199 384.849593,35.8578199 C389.430395,35.8578199 393.511673,36.8571552 397.095628,38.8514268 C400.677382,40.848631 403.46694,43.651609 405.464302,47.2625602 C407.46093,50.8727782 408.459977,55.0270217 408.459977,59.7230912 C408.459977,61.5443304 408.341148,63.188138 408.10789,64.6552473 L408.10789,64.6552473 Z" id="Fill-4" fill="#3C5BDD" mask="url(#mask-2)"></path>
                    <path d="M286.800465,85.4332477 C286.497097,84.2170168 286.334028,82.9439597 286.334028,81.6332644 C286.334028,76.9616982 288.383414,72.7727867 291.625705,69.9144967 L291.625705,35.8578199 L276.488895,35.8578199 L276.488895,62.7772587 C276.488895,66.0953253 275.632413,68.6716977 273.920918,70.507114 C272.208689,72.3440063 269.878706,73.2620835 266.928031,73.2620835 C264.036119,73.2620835 261.734049,72.3440063 260.023289,70.507114 C258.31106,68.6716977 257.456782,66.0953253 257.456782,62.7772587 L257.456782,35.8578199 L242.408117,35.8578199 L242.408117,64.8207922 C242.408117,69.1462344 243.204366,72.9056275 244.797599,76.1041374 C246.390831,79.3026473 248.633403,81.746179 251.526049,83.4347325 C254.415757,85.1225479 257.751335,85.9668246 261.528376,85.9668246 C264.715575,85.9668246 267.621443,85.3004069 270.247449,83.9675714 C272.873454,82.634736 274.952957,80.8731201 276.488895,78.6819858 L276.488895,85.4332477 L286.800465,85.4332477 Z" id="Fill-5" fill="#262E49" mask="url(#mask-2)"></path>
                    <path d="M312.32469,81.3696682 C312.32469,86.9551011 307.794372,91.4834123 302.204817,91.4834123 C296.616,91.4834123 292.085682,86.9551011 292.085682,81.3696682 C292.085682,75.7842354 296.616,71.2559242 302.204817,71.2559242 C307.794372,71.2559242 312.32469,75.7842354 312.32469,81.3696682" id="Fill-6" fill="#262E49" mask="url(#mask-2)"></path>
                    <path d="M341.342975,69.4390712 C339.952522,71.9738452 338.118275,73.9026211 335.841713,75.2290672 C333.563674,76.554046 331.123181,77.2172691 328.520235,77.2172691 C325.975624,77.2172691 323.565407,76.5694528 321.288106,75.2723528 C319.010066,73.9774538 317.175082,72.0772904 315.786105,69.5718626 C314.395652,67.0686357 313.700795,64.1362214 313.700795,60.7775541 C313.700795,57.4188869 314.395652,54.502613 315.786105,52.0279986 C317.175082,49.5533842 319.010066,47.6678939 321.288106,46.3707939 C323.565407,45.0758949 325.975624,44.4266113 328.520235,44.4266113 C331.123181,44.4266113 333.563674,45.0604882 335.841713,46.3275084 C338.118275,47.5952622 339.952522,49.4506727 341.342975,51.8952073 C342.73269,54.3412091 343.428286,57.24281 343.428286,60.6007436 C343.428286,63.9594108 342.73269,66.9072319 341.342975,69.4390712 M350.706197,47.5644487 C348.693252,43.7633882 345.942621,40.8331749 342.452827,38.7701403 C338.960818,36.708573 335.056029,35.6770558 330.7392,35.6770558 C327.069969,35.6770558 323.74189,36.4275836 320.755702,37.9308403 C317.768036,39.4333633 315.416155,41.3636066 313.700795,43.7201027 L313.700795,19.7677725 L303.585118,19.7677725 L303.585118,65.9806271 C311.343005,66.8676146 317.368549,73.4272134 317.368549,81.3910257 C317.368549,81.5018075 317.361903,81.6118555 317.360426,81.7219036 C318.36173,82.4694969 319.459767,83.1503276 320.667091,83.757793 C323.595682,85.2295025 326.95256,85.9668246 330.7392,85.9668246 C334.998432,85.9668246 338.887714,84.8927554 342.407783,82.7409488 C345.927114,80.5906094 348.693252,77.5855633 350.706197,73.7258105 C352.71545,69.8675251 353.722661,65.4927473 353.722661,60.6007436 C353.722661,55.7109408 352.71545,51.3647755 350.706197,47.5644487" id="Fill-7" fill="#3C5BDD" mask="url(#mask-2)"></path>
                    <path d="M148.572717,72.7323014 L148.572717,85.507109 L140.955894,85.507109 C135.527301,85.507109 131.294678,84.1712245 128.260216,81.4979899 C125.224293,78.826221 123.707061,74.4646277 123.707061,68.4146758 L123.707061,48.8563889 L117.754228,48.8563889 L117.754228,36.34612 L123.707061,36.34612 L123.707061,24.3649289 L138.679317,24.3649289 L138.679317,36.34612 L148.4851,36.34612 L148.4851,48.8563889 L138.679317,48.8563889 L138.679317,68.5912793 C138.679317,70.0597996 139.029784,71.1172221 139.729989,71.7628141 C140.430923,72.4106045 141.597687,72.7323014 143.231741,72.7323014 L148.572717,72.7323014 Z" id="Fill-8" fill="#262E49" mask="url(#mask-2)"></path>
                    <path d="M95.9688952,44.077009 C93.7784583,17.6373276 70.5568915,-2.0221021 44.102137,0.166353405 C17.6473825,2.35554231 -2.02325488,25.5638782 0.166448242,52.0035597 C2.35688518,78.4432411 25.578452,98.1026708 52.0332065,95.9142153 C57.3350178,95.4756441 62.356512,94.1797323 66.9920196,92.1966279 L79.9519213,93.4243338 C81.288198,93.6700217 82.5709061,92.7877455 82.816734,91.4522303 L84.7540049,79.0761624 C92.6975492,69.6974865 97.063013,57.2913493 95.9688952,44.077009" id="Fill-9" fill="#3C5BDD" mask="url(#mask-2)"></path>
                    <path d="M41.8934793,25.2720812 L33.6220384,33.8796522 C33.3540334,34.1588844 33.0977766,34.4462209 32.8554707,34.7401883 C32.6241788,35.0201572 32.4061035,35.3074938 32.1975736,35.6007244 C32.1755458,35.6316683 32.153518,35.6626123 32.1314902,35.6942929 C31.9486594,35.9565796 31.7746398,36.2240236 31.6108997,36.4951514 C31.4442227,36.7692263 31.2878253,37.0462482 31.1409732,37.3284274 C31.0624074,37.4779897 30.9867786,37.6297624 30.9140868,37.7822717 C30.8032135,38.0128777 30.6982143,38.2464308 30.6005577,38.4814573 C30.5807327,38.52861 30.5609077,38.5764994 30.5418169,38.6236521 C30.4639853,38.8152097 30.3905593,39.008241 30.3208046,39.2020089 C30.2341619,39.4451398 30.152659,39.690481 30.0784987,39.936559 C30.0359117,40.0772802 29.9962616,40.2187382 29.9588143,40.3601962 C29.9118217,40.5333349 29.8685003,40.7064735 29.8288503,40.8796122 C29.75469,41.1971559 29.6915436,41.5169099 29.6394112,41.8374007 C29.6166491,41.9744381 29.5960898,42.1114755 29.5777333,42.2492497 C29.5615796,42.3678681 29.5468944,42.4864865 29.5336777,42.6051049 C29.5219295,42.7075146 29.5116499,42.8099243 29.5021045,42.9115972 C29.4800767,43.1539914 29.4631887,43.3971223 29.4529091,43.6395164 C29.447035,43.7765539 29.4433637,43.9135913 29.4411609,44.0506287 C29.4385569,44.2222939 29.4374896,44.3924855 29.4404267,44.5641507 C29.4404267,44.5663609 29.4404267,44.569308 29.4404267,44.572255 C29.4433637,44.7593922 29.4514406,44.9457925 29.4617202,45.1321929 C29.4705313,45.2905964 29.480811,45.4489998 29.4947619,45.6066665 C29.5101814,45.7879096 29.5300064,45.9691526 29.5520342,46.1496589 C29.5850759,46.4171029 29.624726,46.6845469 29.6724529,46.9497806 C29.7341307,47.3019521 29.8097595,47.6519132 29.8971365,47.9996641 C30.08217,48.7342142 30.3222731,49.4577128 30.6189142,50.161319 C30.6394735,50.2099451 30.6607671,50.2578346 30.6813264,50.3064608 C30.9295063,50.8789235 31.2151335,51.4381246 31.5374737,51.981117 C32.1403013,52.9978463 32.8716245,53.9571082 33.7329117,54.833853 C33.8224914,54.9259481 33.9142739,55.0165696 34.0067907,55.1064544 C34.1000417,55.1963391 34.1932928,55.2840136 34.2880123,55.3709513 C35.3034942,56.3051634 36.4166326,57.0713942 37.5914489,57.6718539 C38.0231939,57.8921452 38.4622815,58.089597 38.9087117,58.2664195 C38.9571728,58.2848385 39.005634,58.3039942 39.0540952,58.32315 C39.7670618,58.5950146 40.4954479,58.8094118 41.2341136,58.9685521 C41.5836215,59.0437016 41.9345978,59.1063262 42.287777,59.1564259 C42.5543134,59.1940007 42.8215841,59.2242079 43.0888548,59.2477842 C43.2702171,59.2625194 43.4508451,59.2757811 43.6322074,59.285359 C43.7900733,59.2927266 43.9479393,59.2978839 44.1058052,59.300831 C44.2343007,59.3033175 44.362062,59.303778 44.4912918,59.3033175 C44.6109762,59.3023045 44.7299263,59.3000942 44.8496108,59.2964104 C44.9612183,59.2927266 45.0720916,59.288306 45.1829649,59.2831487 C45.3195373,59.2757811 45.4561097,59.2662032 45.5926821,59.2551518 C45.8342537,59.2359961 46.075091,59.2109462 46.3151941,59.1800023 C46.4172562,59.1660038 46.5178499,59.1527421 46.619912,59.1365334 C46.7381279,59.1195879 46.8548753,59.1011689 46.9723569,59.0798029 C47.1089293,59.0562265 47.2447675,59.0304399 47.3806056,59.0031798 C47.697806,58.9383449 48.0135379,58.8631953 48.3278012,58.7784679 C48.4988838,58.732052 48.6699665,58.6819523 48.8395806,58.6296423 C48.9798243,58.5854367 49.1185994,58.5412311 49.2573746,58.4933416 C49.5004147,58.4100877 49.7412521,58.320203 49.9806209,58.2236874 C50.1715285,58.1470643 50.3609677,58.0660206 50.5489383,57.9812932 C50.5951967,57.9599272 50.641455,57.9385611 50.6877134,57.9171951 C50.9190054,57.8103648 51.1473603,57.696167 51.3735124,57.5775485 C51.521833,57.4987152 51.6701536,57.4169348 51.8170056,57.3329441 C52.0923532,57.1752774 52.3625609,57.0087696 52.6290973,56.8319471 C52.8926967,56.6573349 53.1526249,56.4731448 53.4081474,56.2801136 C53.4382521,56.257274 53.469091,56.2336977 53.4991957,56.2108581 C53.7833543,55.9913035 54.061639,55.7614343 54.3318467,55.5197769 C54.6167396,55.2655946 54.8935557,54.9988874 55.1615607,54.7196552 C56.6689968,53.1518292 56.6234727,50.6461073 55.0609671,49.1335383 C53.4977271,47.6217061 51.0005083,47.6666485 49.4938064,49.2352112 C48.6472044,50.1156398 47.627317,50.7293612 46.5398777,51.0749018 C46.5090388,51.0844797 46.4781998,51.092584 46.4473609,51.1021619 C45.8203027,51.2915093 45.1712167,51.393919 44.5206622,51.4057072 C44.0580783,51.4145483 43.5947601,51.3777103 43.1380503,51.2959299 C41.802431,51.0564828 40.5204127,50.4324468 39.4726235,49.4179278 C38.4248342,48.4041456 37.7566574,47.1420751 37.470296,45.8107492 C36.9871528,43.570261 37.5885119,41.1345313 39.2905269,39.3633594 L47.5619679,30.7565252 C50.274325,27.9339963 54.7694658,27.8514791 57.5824165,30.5730718 C58.9459377,31.8926096 59.6662469,33.6321008 59.7389387,35.395905 C61.5995539,36.2313912 63.3492959,37.3969461 64.8993192,38.8962534 C65.5550135,39.530604 66.1519671,40.204003 66.690914,40.9076091 C68.6844304,35.4857898 67.4530761,29.1474406 63.0482493,24.8860188 C57.109553,19.1400249 47.6199744,19.3131636 41.8934793,25.2720812" id="Fill-10" fill="#FFFFFF" mask="url(#mask-2)"></path>
                    <path d="M59.0036515,38.4091052 C58.572641,38.1888167 58.1328194,37.9906308 57.6871238,37.815284 C57.5248524,37.7511867 57.362581,37.6900364 57.1988411,37.6325698 C57.0424437,37.5773135 56.8838436,37.5242675 56.7252435,37.4741684 C56.5644407,37.4233326 56.4029035,37.374707 56.2406321,37.3297652 C55.9777671,37.2560901 55.7134336,37.1897826 55.4483659,37.1315793 C55.0269008,37.0380119 54.6032329,36.9636001 54.1773623,36.9068702 C54.0826428,36.8943455 53.987189,36.8832942 53.8917353,36.8729797 C53.0187005,36.7742551 52.1390573,36.7514158 51.2630855,36.8066721 C51.2197641,36.8096191 51.1757086,36.8125661 51.1331215,36.8155131 C50.6272165,36.8516139 50.1227801,36.913501 49.622015,37.0011744 C49.4861769,37.0247504 49.3503389,37.0505367 49.2145008,37.0785332 C48.5801004,37.2067278 47.9530426,37.3761805 47.3369987,37.587628 C47.2070348,37.6325698 47.077805,37.6789851 46.9485753,37.7276107 C46.6445918,37.8418071 46.3435453,37.9655812 46.0469044,38.1004066 C45.9999118,38.1210357 45.9536534,38.1424014 45.907395,38.1637672 C45.6577467,38.2794371 45.4117697,38.4024745 45.1679955,38.5321426 C45.0549195,38.593293 44.9425778,38.65518 44.8295018,38.7185406 C44.5203784,38.8946241 44.2156606,39.0817588 43.9175512,39.2814183 C43.6869936,39.4353992 43.4601074,39.5960109 43.2368924,39.7632533 C43.1796202,39.8067216 43.1216137,39.8509267 43.0643414,39.8958685 C42.7911968,40.107316 42.5239262,40.3283412 42.2625298,40.5618912 C41.9783713,40.8153335 41.7015554,41.0820373 41.4335506,41.3612659 C39.9261153,42.9298085 39.9716395,45.4354982 41.5341441,46.9473109 C43.0973831,48.4598604 45.5946004,48.4141819 47.1020356,46.8456393 C47.4721025,46.4595818 47.8781481,46.1273072 48.3062216,45.8436581 C48.5301708,45.6955712 48.7607283,45.5614825 48.9964257,45.4413922 C49.0727887,45.4030811 49.1491517,45.3662436 49.2255147,45.3308795 C50.2263107,44.8667265 51.3137494,44.6471747 52.3975167,44.6766448 C52.421013,44.6773815 52.4437751,44.678855 52.4665371,44.6803285 C52.6449623,44.6862225 52.8233874,44.7002208 53.0010782,44.7201131 C53.0774412,44.7289541 53.1538042,44.7392686 53.2301673,44.7503199 C53.305796,44.7613711 53.3814248,44.7724224 53.4570535,44.7856839 C54.7926719,45.0243912 56.0739552,45.6484192 57.122478,46.6629251 C59.935427,49.3844827 60.0169299,53.8948715 57.3045745,56.717364 L49.0331387,65.3248243 C46.3207833,68.1473168 41.824911,68.2290961 39.0126963,65.5075385 C37.649176,64.1887544 36.9296014,62.4485489 36.8561755,60.6847674 C34.9955613,59.8492919 33.2458204,58.6844888 31.6965324,57.1852008 C31.0401042,56.5508583 30.443151,55.8767313 29.9042044,55.1731342 C27.9106893,60.5956205 29.1427771,66.9338881 33.5468669,71.1945183 C39.4848253,76.9404383 48.9751322,76.7673018 54.7016237,70.8091976 L62.9730595,62.2010006 C63.2410643,61.9225088 63.497321,61.635176 63.7396267,61.3404756 C63.9621074,61.0708248 64.1728399,60.7938065 64.3732928,60.5123677 C64.4158799,60.4541644 64.4569984,60.3944875 64.4988512,60.3348107 C64.6581856,60.1056812 64.8094431,59.8713944 64.9540922,59.6356342 C65.1420627,59.3291458 65.3175508,59.0167634 65.4812907,58.6999606 C65.5407658,58.5850274 65.598038,58.4700943 65.654576,58.3536877 C65.7749946,58.1046659 65.8888049,57.8534338 65.9945383,57.5992548 C66.0143633,57.5521027 66.0341883,57.5049507 66.053279,57.4577986 C66.1766347,57.154994 66.2889764,56.8485057 66.3910385,56.5398071 C66.4350941,56.4079287 66.4769469,56.2760502 66.5165969,56.1449086 C66.7045674,55.5194071 66.8506851,54.8843279 66.9556842,54.2440914 C66.9784463,54.1070557 66.9990056,53.9692833 67.0173621,53.8322477 C67.0863825,53.3268366 67.1297038,52.8192152 67.147326,52.3108571 C67.1487945,52.2673888 67.1502631,52.2231838 67.1517316,52.1797155 C67.156708,51.962374 67.1583399,51.743559 67.1546686,51.5254807 L67.1546686,51.5085355 C67.1429205,50.8520904 67.0871167,50.1971189 66.9901944,49.5465679 C66.9762435,49.4507903 66.9615583,49.3557495 66.9454046,49.2607086 C66.8734472,48.8363401 66.7846017,48.4134451 66.6759313,47.9949706 C66.6076451,47.7304771 66.5327506,47.4681938 66.4497793,47.207384 C66.3991154,47.0460355 66.3447802,46.8861606 66.2875079,46.7270224 C66.2324384,46.5700945 66.1744319,46.4131665 66.1134883,46.2569754 C66.0496077,46.0956269 65.9820559,45.9350152 65.9137697,45.7751403 C65.6655899,45.2026849 65.3799629,44.6427542 65.0576229,44.0997689 C64.4547956,43.0837894 63.7234729,42.1238031 62.8621863,41.2478063 C62.7718723,41.1564492 62.6808241,41.0650921 62.5883074,40.9759452 C62.4950564,40.8853249 62.4010712,40.7976515 62.3070859,40.7107149 C61.2916047,39.7757781 60.178467,39.0102939 59.0036515,38.4091052" id="Fill-11" fill="#FFFFFF" mask="url(#mask-2)"></path>
                </g>
            </g>
        </g>
    </g>
</svg>